<?xml version="1.0" encoding="UTF-8"?>
<svg viewBox="0 0 19 18" xmlns="http://www.w3.org/2000/svg">
<path d="M9.518 0c2.585 0 2.91.01 3.925.055 1.013.044 1.705.198 2.31.423a4.692 4.692 0 0 1 1.686 1.05c.53.506.855 1.014 1.098 1.613.235.579.396 1.24.442 2.21.047.97.058 1.28.058 3.754 0 2.472-.011 2.782-.058 3.753-.046.97-.207 1.631-.442 2.21a4.448 4.448 0 0 1-1.098 1.613 4.697 4.697 0 0 1-1.686 1.05c-.605.225-1.297.379-2.31.423-1.015.045-1.34.055-3.925.055s-2.909-.01-3.924-.055c-1.013-.044-1.705-.198-2.31-.423a4.693 4.693 0 0 1-1.686-1.05A4.448 4.448 0 0 1 .5 15.068c-.236-.579-.397-1.24-.443-2.21C.011 11.888 0 11.578 0 9.105S.011 6.322.057 5.35C.103 4.38.264 3.72.5 3.14a4.448 4.448 0 0 1 1.098-1.613A4.692 4.692 0 0 1 3.283.478C3.89.253 4.581.099 5.593.055 6.61.01 6.934 0 9.519 0zm0 1.64c-2.541 0-2.842.01-3.846.054-.928.04-1.432.188-1.767.313a2.965 2.965 0 0 0-1.095.681c-.333.319-.54.622-.712 1.047-.13.32-.285.803-.327 1.69-.046.96-.056 1.249-.056 3.68 0 2.43.01 2.718.056 3.679.042.887.197 1.37.327 1.69.173.425.38.728.712 1.047.333.319.65.516 1.095.681.335.125.84.273 1.767.313 1.004.044 1.305.054 3.846.054 2.542 0 2.843-.01 3.847-.054.928-.04 1.432-.188 1.767-.313a2.965 2.965 0 0 0 1.094-.681c.334-.319.54-.622.712-1.047.13-.32.286-.803.328-1.69.046-.96.056-1.248.056-3.68 0-2.43-.01-2.718-.056-3.678-.042-.888-.197-1.37-.328-1.691a2.812 2.812 0 0 0-.712-1.047 2.965 2.965 0 0 0-1.094-.681c-.335-.125-.84-.273-1.767-.313-1.004-.044-1.305-.054-3.847-.054zm0 2.79c2.7 0 4.888 2.092 4.888 4.675 0 2.582-2.188 4.675-4.888 4.675-2.7 0-4.887-2.093-4.887-4.675 0-2.583 2.188-4.676 4.887-4.676zm0 7.71c1.753 0 3.173-1.36 3.173-3.035 0-1.677-1.42-3.035-3.173-3.035-1.752 0-3.172 1.358-3.172 3.035 0 1.676 1.42 3.034 3.172 3.034zm6.223-7.895c0 .603-.51 1.092-1.142 1.092-.63 0-1.142-.49-1.142-1.092 0-.604.511-1.093 1.142-1.093.631 0 1.142.49 1.142 1.093z"/>
</svg>
