<?xml version="1.0" encoding="UTF-8"?>
<svg viewBox="0 0 19 17" xmlns="http://www.w3.org/2000/svg">
<path d="M16.762 2.688c.805-.53 1.423-1.372 1.714-2.374a7.375 7.375 0 0 1-2.477 1.04C15.289.521 14.276 0 13.154 0c-2.151 0-3.897 1.922-3.897 4.291 0 .337.034.663.1.978-3.239-.18-6.11-1.886-8.034-4.486a4.622 4.622 0 0 0-.528 2.16c0 1.488.688 2.802 1.734 3.572A3.632 3.632 0 0 1 .763 5.98v.053c0 2.08 1.344 3.815 3.128 4.208a3.48 3.48 0 0 1-1.027.15c-.251 0-.496-.025-.734-.076.496 1.705 1.935 2.946 3.641 2.98-1.334 1.151-3.015 1.837-4.84 1.837A7.33 7.33 0 0 1 0 15.073C1.725 16.29 3.775 17 5.975 17c7.171 0 11.091-6.538 11.091-12.21 0-.187-.003-.373-.01-.556A8.375 8.375 0 0 0 19 2.012a7.216 7.216 0 0 1-2.238.676z"/>
</svg>
